<svg xmlns="http://www.w3.org/2000/svg" viewBox="0 0 48 48">
  <path fill="#FFC107" d="M43.6 20H24v8.5h11.3C33.8 33.6 29.4 36 24 36c-6.6 0-12-5.4-12-12s5.4-12 12-12c3 0 5.7 1.1 7.8 3l6.4-6.4C34.5 5.1 29.5 3 24 3 12.4 3 3 12.4 3 24s9.4 21 21 21c10.5 0 20-7.6 20-21 0-1.3-.1-2.7-.4-4z"/>
  <path fill="#FF3D00" d="M6.5 14.7l7 5.1C15.4 15.1 19.3 12 24 12c3 0 5.7 1.1 7.8 3l6.4-6.4C34.5 5.1 29.5 3 24 3c-8.1 0-15.1 4.6-18.5 11.7z"/>
  <path fill="#4CAF50" d="M24 45c5.3 0 10.3-2 14-5.4l-6.5-5.3C29.5 35.7 26.9 36 24 36c-5.4 0-9.8-2.4-11.4-6.4l-7 5.4C9 40.3 16 45 24 45z"/>
  <path fill="#1976D2" d="M43.6 20H24v8.5h11.3c-1.1 3.2-4.3 7.5-11.3 7.5-6.6 0-12-5.4-12-12 0-1.5.3-2.9.8-4.2l-7-5.1C4 17.6 3 20.7 3 24c0 11.6 9.4 21 21 21 10.5 0 20-7.6 20-21 0-1.3-.1-2.7-.4-4z"/>
</svg>